# xmcd
# 
# Track frame offsets:
#     150
#     30139
#     49264
#     75467
#     103382
#     119610
#     203736
#     248028
# 
# Disc length: 3477
# 
# Revision: 0
# Processed by: cddbd v1.5.2PL0 Copyright (c) Steve Scherf et al.
# Submitted via: BonkEnc v1.0.8
# 
DISCID=620d9308
DTITLE=Boris - Noise
DYEAR=2014
DGENRE=Rock
TTITLE0=Melody
TTITLE1=Vanilla
TTITLE2=Ghost Of Romance
TTITLE3=Heavy Rain
TTITLE4=Taiyo no Baka
TTITLE5=Angel
TTITLE6=Quick Silver
TTITLE7=Siesta
EXTD=
EXTT0=
EXTT1=
EXTT2=
EXTT3=
EXTT4=
EXTT5=
EXTT6=
EXTT7=
PLAYORDER=
